<?xml version="1.0"?>
<svg version="1.1" xmlns="http://www.w3.org/2000/svg" width="400px" height="200px" style=""><path fill="#0a0a09" d="M51.05,118l0-2.55l2.25-0.9l0-14.1l-2.25-0.9l0-2.55l9.3-0.15l0,2.7l-2.4,0.9l0,4.8l7.86,0l0-4.8l-2.4-0.9l0-2.55l9.3-0.15l0,2.7l-2.25,0.9l0,14.1l2.25,0.9l0,2.55l-9.3,0l0-2.55l2.4-0.9l0-5.7l-7.86,0l0,5.7l2.4,0.9l0,2.55l-9.3,0z M76.8953,118l0-2.55l2.25-0.9l0-14.1l-2.25-0.9l0-2.55l7.74-0.15l4.5,9.99l4.71-9.84l7.2-0.15l0,2.7l-2.16,0.9l0,14.1l2.25,0.9l0,2.55l-8.94,0l0-2.55l2.34-0.9l0-11.28l-0.81,1.98l-3.39,7.05l-3.24,0.15l-3.45-7.11l-0.51-1.56l0,10.77l2.31,0.9l0,2.55l-8.55,0z"/><path fill="#15d4c1" d="M56.66,114.55l0-14.1l-2.85,0l-0.75,2.85l-2.76,0l0-6.45l17.4,0l0,6.45l-2.79,0l-0.75-2.85l-2.85,0l0,14.1l2.85,0.9l0,2.55l-10.35,0l0-2.55z M79.2353,101.5c4.86,0,7.56,2.94,7.56,8.1c0,5.4-3.15,8.7-8.01,8.7c-4.89,0-7.65-2.55-7.65-8.25c0-5.4,3.21-8.55,8.1-8.55z M79.0853,105.1c-2.19,0-3.3,1.2-3.3,4.8c0,3.3,0.96,4.8,3.15,4.8c2.16,0,3.21-1.35,3.21-4.95c0-3.06-0.9-4.65-3.06-4.65z M90.3806,104.35l0-2.4l6.9-0.15l0,10.35c0,1.65,0.48,2.4,1.83,2.4c1.95,0,3.39-1.62,3.39-1.62l0-7.83l-2.4-0.75l0-2.4l6.9-0.15l0,13.05l2.4,0.6l0,2.34l-6.33,0.21l-0.3-2.1s-2.4,2.4-5.25,2.4c-3,0-4.74-2.01-4.74-5.37l0-7.83z M119.4359,101.8l0.27,2.07s2.16-2.37,4.17-2.37c1.65,0,2.79,0.54,2.79,0.54l-0.24,5.76l-2.7,0l-0.45-2.55c-1.74,0-3.24,1.68-3.24,1.68l0,7.92l3,0.75l0,2.4l-9.9,0l0-2.4l2.4-0.75l0-9.75l-2.4-0.75l0-2.4z M131.8112,96.85c0-1.71,1.23-2.7,2.58-2.7c1.56,0,2.52,0.81,2.52,2.7c0,1.77-1.29,2.73-2.52,2.73c-1.62,0-2.58-0.96-2.58-2.73z M136.8512,114.85l2.1,0.75l0,2.4l-9,0l0-2.4l2.4-0.75l0-9.75l-2.4-0.75l0-2.4l6.9-0.15l0,13.05z M145.7765,112.75l0.24,1.95s1.05,0.3,2.52,0.3c1.65,0,2.46-0.51,2.46-1.47c0-2.46-8.01-1.56-8.01-6.9c0-3.75,3-5.13,6.18-5.13c2.7,0,5.58,0.9,5.58,0.9l-0.12,4.5l-2.55,0l-0.45-1.8s-0.87-0.3-2.07-0.3c-1.29,0-2.07,0.54-2.07,1.53c0,2.43,8.01,1.38,8.01,6.57c0,3.45-2.79,5.4-6.9,5.4c-2.85,0-5.52-0.66-5.52-0.66l0-4.89l2.7,0z M187.6718,115.6l0,2.4l-8.13,0l0-2.4l1.59-0.75l0-7.14c0-1.65-0.48-2.46-1.74-2.46c-1.95,0-3.33,1.56-3.33,1.56l0,8.04l1.56,0.75l0,2.4l-7.62,0l0-2.4l1.56-0.75l0-7.14c0-1.65-0.42-2.46-1.71-2.46c-1.95,0-3.36,1.56-3.36,1.56l0,8.04l1.59,0.75l0,2.4l-8.4,0l0-2.4l2.31-0.75l0-9.75l-2.28-0.75l0-2.4l6.27-0.15l0.21,2.13s2.61-2.43,5.25-2.43c2.13,0,3.45,0.99,4.14,2.58c0.51-0.51,2.76-2.58,5.43-2.58c3.15,0,4.62,2.04,4.62,5.4l0,7.95z"/></svg>
