<?xml version="1.0"?>
<svg version="1.1" xmlns="http://www.w3.org/2000/svg" width="400px" height="261px" style=""><path fill="#0eebcd" d="M53.5,190.5l0-8.5l7.5-3l0-47l-7.5-3l0-8.5l31-0.5l0,9l-8,3l0,16l26.2,0l0-16l-8-3l0-8.5l31-0.5l0,9l-7.5,3l0,47l7.5,3l0,8.5l-31,0l0-8.5l8-3l0-19l-26.2,0l0,19l8,3l0,8.5l-31,0z M139.651,190.5l0-8.5l7.5-3l0-47l-7.5-3l0-8.5l25.8-0.5l15,33.3l15.7-32.8l24-0.5l0,9l-7.2,3l0,47l7.5,3l0,8.5l-29.8,0l0-8.5l7.8-3l0-37.6l-2.7,6.6l-11.3,23.5l-10.8,0.5l-11.5-23.7l-1.7-5.2l0,35.9l7.7,3l0,8.5l-28.5,0z"/><path fill="#131414" d="M68.87,171.725l0-39.95l-8.075,0l-2.125,8.075l-7.82,0l0-18.275l49.3,0l0,18.275l-7.905,0l-2.125-8.075l-8.075,0l0,39.95l8.075,2.55l0,7.225l-29.325,0l0-7.225z M132.83335,134.75c13.77,0,21.42,8.33,21.42,22.95c0,15.3-8.925,24.65-22.695,24.65c-13.855,0-21.675-7.225-21.675-23.375c0-15.3,9.095-24.225,22.95-24.225z M132.40835,144.95c-6.205,0-9.35,3.4-9.35,13.6c0,9.35,2.72,13.6,8.925,13.6c6.12,0,9.095-3.825,9.095-14.025c0-8.67-2.55-13.175-8.67-13.175z M183.9617,135.6l0.765,5.865s6.12-6.715,11.815-6.715c4.675,0,7.905,1.53,7.905,1.53l-0.68,16.32l-7.65,0l-1.275-7.225c-4.93,0-9.18,4.76-9.18,4.76l0,22.44l8.5,2.125l0,6.8l-28.05,0l0-6.8l6.8-2.125l0-27.625l-6.8-2.125l0-6.8z M219.02505,121.575c0-4.845,3.485-7.65,7.31-7.65c4.42,0,7.14,2.295,7.14,7.65c0,5.015-3.655,7.735-7.14,7.735c-4.59,0-7.31-2.72-7.31-7.735z M233.30505,172.575l5.95,2.125l0,6.8l-25.5,0l0-6.8l6.8-2.125l0-27.625l-6.8-2.125l0-6.8l19.55-0.425l0,36.975z M258.5934,166.625l0.68,5.525s2.975,0.85,7.14,0.85c4.675,0,6.97-1.445,6.97-4.165c0-6.97-22.695-4.42-22.695-19.55c0-10.625,8.5-14.535,17.51-14.535c7.65,0,15.81,2.55,15.81,2.55l-0.34,12.75l-7.225,0l-1.275-5.1s-2.465-0.85-5.865-0.85c-3.655,0-5.865,1.53-5.865,4.335c0,6.885,22.695,3.91,22.695,18.615c0,9.775-7.905,15.3-19.55,15.3c-8.075,0-15.64-1.87-15.64-1.87l0-13.855l7.65,0z M377.29675,174.7l0,6.8l-23.035,0l0-6.8l4.505-2.125l0-20.23c0-4.675-1.36-6.97-4.93-6.97c-5.525,0-9.435,4.42-9.435,4.42l0,22.78l4.42,2.125l0,6.8l-21.59,0l0-6.8l4.42-2.125l0-20.23c0-4.675-1.19-6.97-4.845-6.97c-5.525,0-9.52,4.42-9.52,4.42l0,22.78l4.505,2.125l0,6.8l-23.8,0l0-6.8l6.545-2.125l0-27.625l-6.46-2.125l0-6.8l17.765-0.425l0.595,6.035s7.395-6.885,14.875-6.885c6.035,0,9.775,2.805,11.73,7.31c1.445-1.445,7.82-7.31,15.385-7.31c8.925,0,13.09,5.78,13.09,15.3l0,22.525z"/></svg>
